<svg width="61" height="60" viewBox="0 0 61 60" fill="none" xmlns="http://www.w3.org/2000/svg">
<path fill-rule="evenodd" clip-rule="evenodd" d="M30.6323 59.4815C47.0095 59.4815 60.2859 46.2841 60.2859 30.0043C60.2859 13.7245 47.0095 0.5271 30.6323 0.5271C14.2551 0.5271 0.97876 13.7245 0.97876 30.0043C0.97876 46.2841 14.2551 59.4815 30.6323 59.4815Z" fill="#FEF3D9"/>
<path fill-rule="evenodd" clip-rule="evenodd" d="M31.1111 28.8889H38.8889C39.5025 28.8889 40 29.3864 40 30C40 30.6137 39.5025 31.1111 38.8889 31.1111H31.1111V38.8889C31.1111 39.5025 30.6137 40 30 40C29.3864 40 28.8889 39.5025 28.8889 38.8889V31.1111H21.1111C20.4975 31.1111 20 30.6137 20 30C20 29.3864 20.4975 28.8889 21.1111 28.8889H28.8889V21.1111C28.8889 20.4975 29.3864 20 30 20C30.6137 20 31.1111 20.4975 31.1111 21.1111V28.8889Z" fill="#FFBC25"/>
</svg>
